<mxfile host="app.diagrams.net" agent="Mozilla/5.0 (Windows NT 10.0; Win64; x64) AppleWebKit/537.36 (KHTML, like Gecko) Chrome/128.0.0.0 Safari/537.36" version="24.7.14">
  <diagram name="Страница — 1" id="meTIRAEWX6nGUIMU-KBV">
    <mxGraphModel dx="1465" dy="774" grid="1" gridSize="10" guides="1" tooltips="1" connect="1" arrows="1" fold="1" page="1" pageScale="1" pageWidth="827" pageHeight="1169" background="#ffffff" math="0" shadow="0">
      <root>
        <mxCell id="0" />
        <mxCell id="1" parent="0" />
        <mxCell id="PNWkPKI6YtTAHFS4Av7m-3" value="&lt;div&gt;&lt;br&gt;&lt;/div&gt;" style="shape=umlLifeline;perimeter=lifelinePerimeter;whiteSpace=wrap;html=1;container=1;dropTarget=0;collapsible=0;recursiveResize=0;outlineConnect=0;portConstraint=eastwest;newEdgeStyle={&quot;curved&quot;:0,&quot;rounded&quot;:0};participant=umlActor;" vertex="1" parent="1">
          <mxGeometry x="80" y="424" width="50" height="410" as="geometry" />
        </mxCell>
        <mxCell id="PNWkPKI6YtTAHFS4Av7m-4" value="&#xa;&lt;span style=&quot;color: rgb(60, 64, 67); font-family: Roboto, Arial, sans-serif; font-size: 14px; font-style: normal; font-variant-ligatures: normal; font-variant-caps: normal; font-weight: 400; letter-spacing: 0.2px; orphans: 2; text-align: left; text-indent: 0px; text-transform: none; widows: 2; word-spacing: 0px; -webkit-text-stroke-width: 0px; white-space: normal; text-decoration-thickness: initial; text-decoration-style: initial; text-decoration-color: initial; display: inline !important; float: none;&quot;&gt;Я, как клиент банка, хочу иметь возможность заказать карту онлайн, чтобы начать ее использование до получения физического пластика и не посещать банк&lt;/span&gt;&#xa;&#xa;" style="text;html=1;align=center;verticalAlign=middle;whiteSpace=wrap;rounded=0;" vertex="1" parent="1">
          <mxGeometry x="190" y="220" width="410" height="60" as="geometry" />
        </mxCell>
        <mxCell id="PNWkPKI6YtTAHFS4Av7m-5" value="Фронтенд" style="shape=umlLifeline;perimeter=lifelinePerimeter;whiteSpace=wrap;html=1;container=1;dropTarget=0;collapsible=0;recursiveResize=0;outlineConnect=0;portConstraint=eastwest;newEdgeStyle={&quot;curved&quot;:0,&quot;rounded&quot;:0};" vertex="1" parent="1">
          <mxGeometry x="304" y="424" width="110" height="410" as="geometry" />
        </mxCell>
        <mxCell id="PNWkPKI6YtTAHFS4Av7m-9" value="" style="html=1;points=[[0,0,0,0,5],[0,1,0,0,-5],[1,0,0,0,5],[1,1,0,0,-5]];perimeter=orthogonalPerimeter;outlineConnect=0;targetShapes=umlLifeline;portConstraint=eastwest;newEdgeStyle={&quot;curved&quot;:0,&quot;rounded&quot;:0};" vertex="1" parent="PNWkPKI6YtTAHFS4Av7m-5">
          <mxGeometry x="49" y="80" width="12" height="300" as="geometry" />
        </mxCell>
        <mxCell id="PNWkPKI6YtTAHFS4Av7m-6" value="Бэке&lt;span style=&quot;background-color: initial;&quot;&gt;нд&lt;/span&gt;" style="shape=umlLifeline;perimeter=lifelinePerimeter;whiteSpace=wrap;html=1;container=1;dropTarget=0;collapsible=0;recursiveResize=0;outlineConnect=0;portConstraint=eastwest;newEdgeStyle={&quot;curved&quot;:0,&quot;rounded&quot;:0};" vertex="1" parent="1">
          <mxGeometry x="500" y="424" width="110" height="410" as="geometry" />
        </mxCell>
        <mxCell id="PNWkPKI6YtTAHFS4Av7m-30" value="" style="html=1;points=[[0,0,0,0,5],[0,1,0,0,-5],[1,0,0,0,5],[1,1,0,0,-5]];perimeter=orthogonalPerimeter;outlineConnect=0;targetShapes=umlLifeline;portConstraint=eastwest;newEdgeStyle={&quot;curved&quot;:0,&quot;rounded&quot;:0};" vertex="1" parent="PNWkPKI6YtTAHFS4Av7m-6">
          <mxGeometry x="50" y="100" width="10" height="50" as="geometry" />
        </mxCell>
        <mxCell id="PNWkPKI6YtTAHFS4Av7m-48" value="" style="html=1;points=[[0,0,0,0,5],[0,1,0,0,-5],[1,0,0,0,5],[1,1,0,0,-5]];perimeter=orthogonalPerimeter;outlineConnect=0;targetShapes=umlLifeline;portConstraint=eastwest;newEdgeStyle={&quot;curved&quot;:0,&quot;rounded&quot;:0};" vertex="1" parent="PNWkPKI6YtTAHFS4Av7m-6">
          <mxGeometry x="50" y="290" width="10" height="90" as="geometry" />
        </mxCell>
        <mxCell id="PNWkPKI6YtTAHFS4Av7m-7" value="База данных" style="shape=umlLifeline;perimeter=lifelinePerimeter;whiteSpace=wrap;html=1;container=1;dropTarget=0;collapsible=0;recursiveResize=0;outlineConnect=0;portConstraint=eastwest;newEdgeStyle={&quot;curved&quot;:0,&quot;rounded&quot;:0};" vertex="1" parent="1">
          <mxGeometry x="690" y="424" width="110" height="410" as="geometry" />
        </mxCell>
        <mxCell id="PNWkPKI6YtTAHFS4Av7m-40" value="" style="html=1;points=[[0,0,0,0,5],[0,1,0,0,-5],[1,0,0,0,5],[1,1,0,0,-5]];perimeter=orthogonalPerimeter;outlineConnect=0;targetShapes=umlLifeline;portConstraint=eastwest;newEdgeStyle={&quot;curved&quot;:0,&quot;rounded&quot;:0};" vertex="1" parent="PNWkPKI6YtTAHFS4Av7m-7">
          <mxGeometry x="50" y="300" width="10" height="80" as="geometry" />
        </mxCell>
        <mxCell id="PNWkPKI6YtTAHFS4Av7m-8" value="Пользователь" style="text;html=1;align=center;verticalAlign=middle;resizable=0;points=[];autosize=1;strokeColor=none;fillColor=none;" vertex="1" parent="1">
          <mxGeometry x="60" y="394" width="90" height="30" as="geometry" />
        </mxCell>
        <mxCell id="PNWkPKI6YtTAHFS4Av7m-18" value="Отобразить раздел заказа карты" style="html=1;verticalAlign=bottom;endArrow=open;dashed=1;endSize=8;curved=0;rounded=0;" edge="1" parent="1">
          <mxGeometry relative="1" as="geometry">
            <mxPoint x="100" y="574" as="targetPoint" />
            <mxPoint x="350" y="574" as="sourcePoint" />
          </mxGeometry>
        </mxCell>
        <mxCell id="PNWkPKI6YtTAHFS4Av7m-32" value="Валидация&amp;nbsp;&lt;div&gt;пользователя&lt;/div&gt;" style="html=1;align=left;spacingLeft=2;endArrow=block;rounded=0;edgeStyle=orthogonalEdgeStyle;curved=0;rounded=0;exitX=1;exitY=0;exitDx=0;exitDy=5;exitPerimeter=0;" edge="1" parent="1" target="PNWkPKI6YtTAHFS4Av7m-30">
          <mxGeometry relative="1" as="geometry">
            <mxPoint x="560" y="524" as="sourcePoint" />
            <Array as="points">
              <mxPoint x="560" y="529" />
              <mxPoint x="590" y="529" />
              <mxPoint x="590" y="559" />
            </Array>
            <mxPoint x="560" y="559" as="targetPoint" />
          </mxGeometry>
        </mxCell>
        <mxCell id="PNWkPKI6YtTAHFS4Av7m-33" value="Вернуть данные по разделу&lt;div&gt;&amp;nbsp;заказа карты&amp;nbsp;&lt;/div&gt;" style="html=1;verticalAlign=bottom;endArrow=open;dashed=1;endSize=8;curved=0;rounded=0;exitX=0;exitY=1;exitDx=0;exitDy=-5;exitPerimeter=0;" edge="1" parent="1" source="PNWkPKI6YtTAHFS4Av7m-30" target="PNWkPKI6YtTAHFS4Av7m-9">
          <mxGeometry relative="1" as="geometry">
            <mxPoint x="366" y="564" as="targetPoint" />
            <mxPoint x="550" y="564" as="sourcePoint" />
          </mxGeometry>
        </mxCell>
        <mxCell id="PNWkPKI6YtTAHFS4Av7m-35" value="Открыть раздел заказа карты" style="html=1;verticalAlign=bottom;endArrow=block;curved=0;rounded=0;" edge="1" parent="1">
          <mxGeometry width="80" relative="1" as="geometry">
            <mxPoint x="104.66666666666652" y="514" as="sourcePoint" />
            <mxPoint x="352" y="514" as="targetPoint" />
          </mxGeometry>
        </mxCell>
        <mxCell id="PNWkPKI6YtTAHFS4Av7m-36" value="Отправить запрос на открытие&lt;div&gt;раздела заказа карты онлайн&lt;/div&gt;" style="html=1;verticalAlign=bottom;endArrow=block;curved=0;rounded=0;entryX=0;entryY=0;entryDx=0;entryDy=5;entryPerimeter=0;" edge="1" parent="1" source="PNWkPKI6YtTAHFS4Av7m-9" target="PNWkPKI6YtTAHFS4Av7m-30">
          <mxGeometry width="80" relative="1" as="geometry">
            <mxPoint x="369.99666666666656" y="524" as="sourcePoint" />
            <mxPoint x="617.33" y="524" as="targetPoint" />
          </mxGeometry>
        </mxCell>
        <mxCell id="PNWkPKI6YtTAHFS4Av7m-37" value="Ввести данные для заказа карты" style="html=1;verticalAlign=bottom;endArrow=block;curved=0;rounded=0;" edge="1" parent="1">
          <mxGeometry width="80" relative="1" as="geometry">
            <mxPoint x="104.66666666666652" y="714" as="sourcePoint" />
            <mxPoint x="352" y="714" as="targetPoint" />
          </mxGeometry>
        </mxCell>
        <mxCell id="PNWkPKI6YtTAHFS4Av7m-38" value="Отправить запрос на создание&amp;nbsp;&lt;div&gt;заявки по выпуску карты&lt;/div&gt;" style="html=1;verticalAlign=bottom;endArrow=block;curved=0;rounded=0;" edge="1" parent="1" target="PNWkPKI6YtTAHFS4Av7m-48">
          <mxGeometry width="80" relative="1" as="geometry">
            <mxPoint x="366" y="724" as="sourcePoint" />
            <mxPoint x="545" y="724" as="targetPoint" />
          </mxGeometry>
        </mxCell>
        <mxCell id="PNWkPKI6YtTAHFS4Av7m-46" value="Сохранить заявку на создание карты" style="html=1;verticalAlign=bottom;endArrow=block;curved=0;rounded=0;" edge="1" parent="1">
          <mxGeometry width="80" relative="1" as="geometry">
            <mxPoint x="560" y="734" as="sourcePoint" />
            <mxPoint x="740" y="734" as="targetPoint" />
          </mxGeometry>
        </mxCell>
        <mxCell id="PNWkPKI6YtTAHFS4Av7m-47" value="Сообщить об успешном сохранении" style="html=1;verticalAlign=bottom;endArrow=open;dashed=1;endSize=8;curved=0;rounded=0;" edge="1" parent="1" target="PNWkPKI6YtTAHFS4Av7m-48">
          <mxGeometry relative="1" as="geometry">
            <mxPoint x="740" y="794" as="sourcePoint" />
            <mxPoint x="560" y="794" as="targetPoint" />
            <mxPoint as="offset" />
          </mxGeometry>
        </mxCell>
        <mxCell id="PNWkPKI6YtTAHFS4Av7m-49" value="Вернуть данные по успешному&amp;nbsp;&lt;div&gt;созданию заявки&lt;/div&gt;" style="html=1;verticalAlign=bottom;endArrow=open;dashed=1;endSize=8;curved=0;rounded=0;" edge="1" parent="1">
          <mxGeometry relative="1" as="geometry">
            <mxPoint x="550" y="794" as="sourcePoint" />
            <mxPoint x="365.0000000000002" y="794" as="targetPoint" />
          </mxGeometry>
        </mxCell>
        <mxCell id="PNWkPKI6YtTAHFS4Av7m-50" value="Отобразить сообщение, что заявка создана" style="html=1;verticalAlign=bottom;endArrow=open;dashed=1;endSize=8;curved=0;rounded=0;" edge="1" parent="1">
          <mxGeometry relative="1" as="geometry">
            <mxPoint x="353" y="794" as="sourcePoint" />
            <mxPoint x="104.66666666666652" y="794" as="targetPoint" />
          </mxGeometry>
        </mxCell>
      </root>
    </mxGraphModel>
  </diagram>
</mxfile>
